<!-- public/books-illustration.svg -->
<svg xmlns="http://www.w3.org/2000/svg" viewBox="0 0 300 200" fill="none">
  <rect width="300" height="200" fill="#f3f4f6" />
  <path d="M50 50 L50 150 L250 150 L250 50 Z" fill="#e5e7eb" />
  <path d="M65 65 L65 135 L100 135 L100 65 Z" fill="#d1d5db" />
  <path d="M110 65 L110 135 L145 135 L145 65 Z" fill="#9ca3af" />
  <path d="M155 65 L155 135 L190 135 L190 65 Z" fill="#6b7280" />
  <path d="M200 65 L200 135 L235 135 L235 65 Z" fill="#4b5563" />
  <text x="150" y="175" font-family="Arial" font-size="14" fill="#6b7280" text-anchor="middle">Find your next book</text>
</svg>

<!-- public/book-placeholder.png - Since we can't actually create a PNG file, let's use an SVG as placeholder -->
<svg xmlns="http://www.w3.org/2000/svg" viewBox="0 0 200 300" fill="none">
  <rect width="200" height="300" fill="#e5e7eb" />
  <rect x="20" y="20" width="160" height="260" fill="#d1d5db" />
  <path d="M40 80 L160 80" stroke="#9ca3af" stroke-width="2" />
  <path d="M40 110 L160 110" stroke="#9ca3af" stroke-width="2" />
  <path d="M40 140 L160 140" stroke="#9ca3af" stroke-width="2" />
  <path d="M40 170 L160 170" stroke="#9ca3af" stroke-width="2" />
  <path d="M40 200 L160 200" stroke="#9ca3af" stroke-width="2" />
  <path d="M40 230 L160 230" stroke="#9ca3af" stroke-width="2" />
  <text x="100" y="60" font-family="Arial" font-size="14" fill="#6b7280" text-anchor="middle">Book Cover</text>
</svg>
